<svg xmlns="http://www.w3.org/2000/svg" xmlns:xlink="http://www.w3.org/1999/xlink" viewBox="0 0 1320 560" width="1320" height="560" font-family="'Inter','Helvetica Neue',Arial,sans-serif"><defs><radialGradient id="glow" cx="50%" cy="50%" r="55%"><stop offset="0%" stop-color="#7c37ab" stop-opacity="0.20"/><stop offset="100%" stop-color="#7c37ab" stop-opacity="0"/></radialGradient></defs><rect x="0" y="0" width="1320" height="560" fill="#09090b"/><ellipse cx="660" cy="290" rx="600" ry="220" fill="url(#glow)"/><text x="48" y="58" font-size="26" font-weight="700" fill="#fafafa">From file to running system</text><rect x="48" y="110" width="360" height="360" rx="10" fill="#0d0b14" stroke="#27272a" stroke-width="1"/><text x="64" y="134" font-size="12.5" font-weight="700" fill="#a1a1aa" letter-spacing="0.5">1 · MANIFEST  events.bloccs</text><rect x="456" y="110" width="380" height="360" rx="10" fill="#0d0b14" stroke="#27272a" stroke-width="1"/><text x="472" y="134" font-size="12.5" font-weight="700" fill="#a1a1aa" letter-spacing="0.5">2 · DIAGRAM  a view</text><rect x="884" y="110" width="388" height="360" rx="10" fill="#0d0b14" stroke="#27272a" stroke-width="1"/><text x="900" y="134" font-size="12.5" font-weight="700" fill="#a1a1aa" letter-spacing="0.5">3 · COMPILED  BEAM tree</text><path d="M544.5,255 C567,255 567,255 589.5,255" fill="none" stroke="#6b46a0" stroke-width="2.5"/><polygon points="580.5,250 589.5,255 580.5,260" fill="#6b46a0"/><circle cx="544.5" cy="255" r="3.2" fill="#7c37ab" stroke="#09090b" stroke-width="1.2"/><circle cx="589.5" cy="255" r="3.2" fill="#7c37ab" stroke="#09090b" stroke-width="1.2"/><path d="M634.5,255 C657,255 657,255 679.5,255" fill="none" stroke="#6b46a0" stroke-width="2.5"/><polygon points="670.5,250 679.5,255 670.5,260" fill="#6b46a0"/><circle cx="634.5" cy="255" r="3.2" fill="#7c37ab" stroke="#09090b" stroke-width="1.2"/><circle cx="679.5" cy="255" r="3.2" fill="#7c37ab" stroke="#09090b" stroke-width="1.2"/><path d="M724.5,244 C752,244 752,205 779.5,205" fill="none" stroke="#6b46a0" stroke-width="2.5"/><polygon points="770.5,200 779.5,205 770.5,210" fill="#6b46a0"/><circle cx="724.5" cy="244" r="3.2" fill="#7c37ab" stroke="#09090b" stroke-width="1.2"/><circle cx="779.5" cy="205" r="3.2" fill="#7c37ab" stroke="#09090b" stroke-width="1.2"/><path d="M724.5,266 C752,266 752,305 779.5,305" fill="none" stroke="#6b46a0" stroke-width="2.5"/><polygon points="770.5,300 779.5,305 770.5,310" fill="#6b46a0"/><circle cx="724.5" cy="266" r="3.2" fill="#7c37ab" stroke="#09090b" stroke-width="1.2"/><circle cx="779.5" cy="305" r="3.2" fill="#7c37ab" stroke="#09090b" stroke-width="1.2"/><text x="68" y="168" font-size="12" font-family="ui-monospace,Menlo,monospace" fill="#c98bff" xml:space="preserve">[nodes]</text><text x="68" y="187" font-size="12" font-family="ui-monospace,Menlo,monospace" fill="#fafafa" xml:space="preserve">ingest   = { use = "…" }</text><text x="68" y="206" font-size="12" font-family="ui-monospace,Menlo,monospace" fill="#fafafa" xml:space="preserve">enrich   = { use = "…" }</text><text x="68" y="225" font-size="12" font-family="ui-monospace,Menlo,monospace" fill="#fafafa" xml:space="preserve">route    = { use = "…" }</text><text x="68" y="244" font-size="12" font-family="ui-monospace,Menlo,monospace" fill="#fafafa" xml:space="preserve">persist  = { use = "…" }</text><text x="68" y="263" font-size="12" font-family="ui-monospace,Menlo,monospace" fill="#fafafa" xml:space="preserve"></text><text x="68" y="282" font-size="12" font-family="ui-monospace,Menlo,monospace" fill="#c98bff" xml:space="preserve">[[edges]]</text><text x="68" y="301" font-size="12" font-family="ui-monospace,Menlo,monospace" fill="#fafafa" xml:space="preserve">from = "route.known"</text><text x="68" y="320" font-size="12" font-family="ui-monospace,Menlo,monospace" fill="#fafafa" xml:space="preserve">to   = ["persist.event",</text><text x="68" y="339" font-size="12" font-family="ui-monospace,Menlo,monospace" fill="#fafafa" xml:space="preserve">        "notify.event"]</text><text x="68" y="358" font-size="12" font-family="ui-monospace,Menlo,monospace" fill="#fafafa" xml:space="preserve"></text><text x="68" y="377" font-size="12" font-family="ui-monospace,Menlo,monospace" fill="#c98bff" xml:space="preserve">[supervision]</text><text x="68" y="396" font-size="12" font-family="ui-monospace,Menlo,monospace" fill="#fafafa" xml:space="preserve">strategy = "rest_for_one"</text><g transform="translate(522,255) scale(0.5)"><path d="M0,-52 L45,-26 L45,26 L0,52 L-45,26 L-45,-26 Z" fill="#1a1326" stroke="#7c37ab" stroke-width="3"/><g stroke="#fafafa" stroke-width="4.5" fill="none" stroke-linecap="round" stroke-linejoin="round"><circle cx="-17" cy="0" r="6" fill="#fafafa" stroke="none"/><line x1="-11" y1="0" x2="16" y2="0"/><polyline points="7,-9 19,0 7,9"/></g></g><text x="522" y="299" text-anchor="middle" font-size="15" font-weight="700" fill="#fafafa"></text><g transform="translate(612,255) scale(0.5)"><path d="M0,-52 L45,-26 L45,26 L0,52 L-45,26 L-45,-26 Z" fill="#1a1326" stroke="#7c37ab" stroke-width="3"/><path d="M0,-44 L38,-22 L38,22 L0,44 L-38,22 L-38,-22 Z" fill="none" stroke="#7c37ab" stroke-width="1.5" opacity="0.6"/><circle cx="0" cy="0" r="3" fill="#7c37ab"/><circle cx="0" cy="-52" r="6.5" fill="#c98bff" stroke="#09090b" stroke-width="2"/></g><text x="612" y="299" text-anchor="middle" font-size="15" font-weight="700" fill="#fafafa"></text><g transform="translate(702,255) scale(0.5)"><path d="M0,-52 L45,-26 L45,26 L0,52 L-45,26 L-45,-26 Z" fill="#1a1326" stroke="#7c37ab" stroke-width="3"/><g stroke="#fafafa" stroke-width="4.5" fill="none" stroke-linecap="round" stroke-linejoin="round"><line x1="-34" y1="0" x2="-12" y2="0"/><polygon points="-12,0 -4,-8 4,0 -4,8" fill="#1a1326" stroke="#fafafa" stroke-width="3"/><line x1="4" y1="0" x2="34" y2="-22"/><line x1="4" y1="0" x2="34" y2="22"/></g></g><text x="702" y="299" text-anchor="middle" font-size="15" font-weight="700" fill="#fafafa"></text><g transform="translate(802,205) scale(0.5)"><path d="M0,-52 L45,-26 L45,26 L0,52 L-45,26 L-45,-26 Z" fill="#1a1326" stroke="#7c37ab" stroke-width="3"/><path d="M0,-44 L38,-22 L38,22 L0,44 L-38,22 L-38,-22 Z" fill="none" stroke="#7c37ab" stroke-width="1.5" opacity="0.6"/><g stroke="#fafafa" stroke-width="4.5" fill="none" stroke-linecap="round" stroke-linejoin="round"><line x1="-20" y1="0" x2="9" y2="0"/><polyline points="1,-9 13,0 1,9"/><line x1="19" y1="-13" x2="19" y2="13"/></g><circle cx="0" cy="-52" r="6.5" fill="#c98bff" stroke="#09090b" stroke-width="2"/></g><text x="802" y="249" text-anchor="middle" font-size="15" font-weight="700" fill="#fafafa"></text><g transform="translate(802,305) scale(0.5)"><path d="M0,-52 L45,-26 L45,26 L0,52 L-45,26 L-45,-26 Z" fill="#1a1326" stroke="#7c37ab" stroke-width="3"/><path d="M0,-44 L38,-22 L38,22 L0,44 L-38,22 L-38,-22 Z" fill="none" stroke="#7c37ab" stroke-width="1.5" opacity="0.6"/><g stroke="#fafafa" stroke-width="4.5" fill="none" stroke-linecap="round" stroke-linejoin="round"><line x1="-20" y1="0" x2="9" y2="0"/><polyline points="1,-9 13,0 1,9"/><line x1="19" y1="-13" x2="19" y2="13"/></g><circle cx="0" cy="-52" r="6.5" fill="#c98bff" stroke="#09090b" stroke-width="2"/></g><text x="802" y="349" text-anchor="middle" font-size="15" font-weight="700" fill="#fafafa"></text><text x="646" y="430" text-anchor="middle" font-size="12.5" fill="#a1a1aa">the hexagon network</text><rect x="916" y="158" width="188" height="34" rx="7" fill="#0d0b14" stroke="#7c37ab" stroke-width="1.5"/><text x="1010" y="180" text-anchor="middle" font-size="12.5" font-family="ui-monospace,Menlo,monospace" fill="#fafafa">Supervisor</text><text x="1010" y="210" text-anchor="middle" font-size="10.5" fill="#a1a1aa">rest_for_one</text><line x1="946" y1="192" x2="946" y2="433" stroke="#6b46a0" stroke-width="1.5"/><line x1="946" y1="265" x2="986" y2="265" stroke="#6b46a0" stroke-width="1.5"/><rect x="986" y="248" width="250" height="34" rx="7" fill="#0d0b14" stroke="#27272a" stroke-width="1.5"/><text x="1111" y="270" text-anchor="middle" font-size="12.5" font-family="ui-monospace,Menlo,monospace" fill="#fafafa">ingest (Producer)</text><line x1="946" y1="307" x2="986" y2="307" stroke="#6b46a0" stroke-width="1.5"/><rect x="986" y="290" width="250" height="34" rx="7" fill="#0d0b14" stroke="#27272a" stroke-width="1.5"/><text x="1111" y="312" text-anchor="middle" font-size="12.5" font-family="ui-monospace,Menlo,monospace" fill="#fafafa">enrich ×4</text><line x1="946" y1="349" x2="986" y2="349" stroke="#6b46a0" stroke-width="1.5"/><rect x="986" y="332" width="250" height="34" rx="7" fill="#0d0b14" stroke="#27272a" stroke-width="1.5"/><text x="1111" y="354" text-anchor="middle" font-size="12.5" font-family="ui-monospace,Menlo,monospace" fill="#fafafa">route</text><line x1="946" y1="391" x2="986" y2="391" stroke="#6b46a0" stroke-width="1.5"/><rect x="986" y="374" width="250" height="34" rx="7" fill="#0d0b14" stroke="#27272a" stroke-width="1.5"/><text x="1111" y="396" text-anchor="middle" font-size="12.5" font-family="ui-monospace,Menlo,monospace" fill="#fafafa">persist ×1</text><line x1="946" y1="433" x2="986" y2="433" stroke="#6b46a0" stroke-width="1.5"/><rect x="986" y="416" width="250" height="34" rx="7" fill="#0d0b14" stroke="#27272a" stroke-width="1.5"/><text x="1111" y="438" text-anchor="middle" font-size="12.5" font-family="ui-monospace,Menlo,monospace" fill="#fafafa">notify</text><line x1="412" y1="290" x2="439" y2="290" stroke="#6b46a0" stroke-width="3"/><polygon points="437,283 451,290 437,297" fill="#6b46a0"/><line x1="840" y1="290" x2="867" y2="290" stroke="#6b46a0" stroke-width="3"/><polygon points="865,283 879,290 865,297" fill="#6b46a0"/><line x1="48" y1="500" x2="1272" y2="500" stroke="#27272a" stroke-width="1"/><g transform="translate(62,527)"><path d="M0,-12 L10,-6 L10,6 L0,12 L-10,6 L-10,-6 Z" fill="#1a1326" stroke="#7c37ab" stroke-width="2"/><rect x="-4.5" y="-4.5" width="9" height="9" rx="1.5" fill="#fafafa"/></g><text x="82" y="532" font-size="17" font-weight="700" fill="#7c37ab">bloccs</text><text x="1272" y="532" text-anchor="end" font-size="13" fill="#a1a1aa">the manifest is the source of truth · the diagram is a view · the tree is output</text></svg>
