<svg xmlns="http://www.w3.org/2000/svg" xmlns:xlink="http://www.w3.org/1999/xlink" viewBox="0 0 1280 600" width="1280" height="600" font-family="'Inter','Helvetica Neue',Arial,sans-serif"><defs><radialGradient id="glow" cx="50%" cy="50%" r="55%"><stop offset="0%" stop-color="#7c37ab" stop-opacity="0.20"/><stop offset="100%" stop-color="#7c37ab" stop-opacity="0"/></radialGradient></defs><rect x="0" y="0" width="1280" height="600" fill="#09090b"/><ellipse cx="700" cy="300" rx="540" ry="260" fill="url(#glow)"/><text x="48" y="58" font-size="26" font-weight="700" fill="#fafafa">events<tspan fill="#a1a1aa" font-weight="400" dx="14">·</tspan><tspan fill="#a1a1aa" font-weight="400" dx="14">webhook processor</tspan></text><line x1="96.6" y1="300" x2="142.6" y2="300" stroke="#6b46a0" stroke-width="2.5"/><polygon points="133.6,295 142.6,300 133.6,305" fill="#6b46a0"/><text x="90.6" y="304" text-anchor="end" font-size="12.5" font-family="ui-monospace,Menlo,monospace" fill="#a1a1aa">webhook</text><path d="M207.4,300 C287.5,300 287.5,300 367.6,300" fill="none" stroke="#6b46a0" stroke-width="2.5"/><polygon points="358.6,295 367.6,300 358.6,305" fill="#6b46a0"/><circle cx="207.4" cy="300" r="3.2" fill="#7c37ab" stroke="#09090b" stroke-width="1.2"/><circle cx="367.6" cy="300" r="3.2" fill="#7c37ab" stroke="#09090b" stroke-width="1.2"/><rect x="248.5" y="281" width="78" height="17" rx="4" fill="#0d0b14"/><text x="287.5" y="293" text-anchor="middle" font-size="11.5" font-family="ui-monospace,Menlo,monospace" fill="#a1a1aa">RawEvent@1</text><path d="M432.4,300 C507.5,300 507.5,300 582.6,300" fill="none" stroke="#6b46a0" stroke-width="2.5"/><polygon points="573.6,295 582.6,300 573.6,305" fill="#6b46a0"/><circle cx="432.4" cy="300" r="3.2" fill="#7c37ab" stroke="#09090b" stroke-width="1.2"/><circle cx="582.6" cy="300" r="3.2" fill="#7c37ab" stroke="#09090b" stroke-width="1.2"/><path d="M647.4,300 C720,300 720,300 792.6,300" fill="none" stroke="#6b46a0" stroke-width="2.5"/><polygon points="783.6,295 792.6,300 783.6,305" fill="#6b46a0"/><circle cx="647.4" cy="300" r="3.2" fill="#7c37ab" stroke="#09090b" stroke-width="1.2"/><circle cx="792.6" cy="300" r="3.2" fill="#7c37ab" stroke="#09090b" stroke-width="1.2"/><rect x="664.5" y="281" width="111" height="17" rx="4" fill="#0d0b14"/><text x="720" y="293" text-anchor="middle" font-size="11.5" font-family="ui-monospace,Menlo,monospace" fill="#a1a1aa">EnrichedEvent@1</text><path d="M857.4,284.16 C940,284.16 940,170 1022.6,170" fill="none" stroke="#6b46a0" stroke-width="2.5"/><polygon points="1013.6,165 1022.6,170 1013.6,175" fill="#6b46a0"/><circle cx="857.4" cy="284.16" r="3.2" fill="#7c37ab" stroke="#09090b" stroke-width="1.2"/><circle cx="1022.6" cy="170" r="3.2" fill="#7c37ab" stroke="#09090b" stroke-width="1.2"/><path d="M857.4,284.16 C940,284.16 940,300 1022.6,300" fill="none" stroke="#6b46a0" stroke-width="2.5"/><polygon points="1013.6,295 1022.6,300 1013.6,305" fill="#6b46a0"/><circle cx="857.4" cy="284.16" r="3.2" fill="#7c37ab" stroke="#09090b" stroke-width="1.2"/><circle cx="1022.6" cy="300" r="3.2" fill="#7c37ab" stroke="#09090b" stroke-width="1.2"/><path d="M857.4,315.84 C940,315.84 940,430 1022.6,430" fill="none" stroke="#6b46a0" stroke-width="2.5"/><polygon points="1013.6,425 1022.6,430 1013.6,435" fill="#6b46a0"/><circle cx="857.4" cy="315.84" r="3.2" fill="#7c37ab" stroke="#09090b" stroke-width="1.2"/><circle cx="1022.6" cy="430" r="3.2" fill="#7c37ab" stroke="#09090b" stroke-width="1.2"/><line x1="1087.4" y1="170" x2="1133.4" y2="170" stroke="#6b46a0" stroke-width="2.5"/><polygon points="1124.4,165 1133.4,170 1124.4,175" fill="#6b46a0"/><text x="1139.4" y="174" text-anchor="start" font-size="12.5" font-family="ui-monospace,Menlo,monospace" fill="#a1a1aa">stored</text><line x1="1087.4" y1="300" x2="1133.4" y2="300" stroke="#6b46a0" stroke-width="2.5"/><polygon points="1124.4,295 1133.4,300 1124.4,305" fill="#6b46a0"/><text x="1139.4" y="304" text-anchor="start" font-size="12.5" font-family="ui-monospace,Menlo,monospace" fill="#a1a1aa">notified</text><line x1="1087.4" y1="430" x2="1133.4" y2="430" stroke="#6b46a0" stroke-width="2.5"/><polygon points="1124.4,425 1133.4,430 1124.4,435" fill="#6b46a0"/><text x="1139.4" y="434" text-anchor="start" font-size="12.5" font-family="ui-monospace,Menlo,monospace" fill="#a1a1aa">dead</text><g transform="translate(175,300) scale(0.72)"><path d="M0,-52 L45,-26 L45,26 L0,52 L-45,26 L-45,-26 Z" fill="#1a1326" stroke="#7c37ab" stroke-width="3"/><g stroke="#fafafa" stroke-width="4.5" fill="none" stroke-linecap="round" stroke-linejoin="round"><circle cx="-17" cy="0" r="6" fill="#fafafa" stroke="none"/><line x1="-11" y1="0" x2="16" y2="0"/><polyline points="7,-9 19,0 7,9"/></g></g><text x="175" y="355.44" text-anchor="middle" font-size="15" font-weight="700" fill="#fafafa">ingest</text><text x="175" y="372.44" text-anchor="middle" font-size="11.5" fill="#a1a1aa">source</text><g transform="translate(400,300) scale(0.72)"><path d="M0,-52 L45,-26 L45,26 L0,52 L-45,26 L-45,-26 Z" fill="#1a1326" stroke="#7c37ab" stroke-width="3"/><circle cx="0" cy="0" r="3" fill="#7c37ab"/></g><text x="400" y="355.44" text-anchor="middle" font-size="15" font-weight="700" fill="#fafafa">validate</text><text x="400" y="372.44" text-anchor="middle" font-size="11.5" fill="#a1a1aa">pure</text><g transform="translate(615,300) scale(0.72)"><path d="M0,-52 L45,-26 L45,26 L0,52 L-45,26 L-45,-26 Z" fill="#1a1326" stroke="#7c37ab" stroke-width="3"/><path d="M0,-44 L38,-22 L38,22 L0,44 L-38,22 L-38,-22 Z" fill="none" stroke="#7c37ab" stroke-width="1.5" opacity="0.6"/><circle cx="0" cy="0" r="3" fill="#7c37ab"/><circle cx="0" cy="-52" r="6.5" fill="#c98bff" stroke="#09090b" stroke-width="2"/></g><text x="615" y="355.44" text-anchor="middle" font-size="15" font-weight="700" fill="#fafafa">enrich</text><text x="615" y="372.44" text-anchor="middle" font-size="11.5" fill="#c98bff">+HTTP</text><g transform="translate(825,300) scale(0.72)"><path d="M0,-52 L45,-26 L45,26 L0,52 L-45,26 L-45,-26 Z" fill="#1a1326" stroke="#7c37ab" stroke-width="3"/><g stroke="#fafafa" stroke-width="4.5" fill="none" stroke-linecap="round" stroke-linejoin="round"><line x1="-34" y1="0" x2="-12" y2="0"/><polygon points="-12,0 -4,-8 4,0 -4,8" fill="#1a1326" stroke="#fafafa" stroke-width="3"/><line x1="4" y1="0" x2="34" y2="-22"/><line x1="4" y1="0" x2="34" y2="22"/></g></g><text x="825" y="355.44" text-anchor="middle" font-size="15" font-weight="700" fill="#fafafa">route</text><text x="825" y="372.44" text-anchor="middle" font-size="11.5" fill="#a1a1aa">split</text><g transform="translate(1055,170) scale(0.72)"><path d="M0,-52 L45,-26 L45,26 L0,52 L-45,26 L-45,-26 Z" fill="#1a1326" stroke="#7c37ab" stroke-width="3"/><path d="M0,-44 L38,-22 L38,22 L0,44 L-38,22 L-38,-22 Z" fill="none" stroke="#7c37ab" stroke-width="1.5" opacity="0.6"/><g stroke="#fafafa" stroke-width="4.5" fill="none" stroke-linecap="round" stroke-linejoin="round"><line x1="-20" y1="0" x2="9" y2="0"/><polyline points="1,-9 13,0 1,9"/><line x1="19" y1="-13" x2="19" y2="13"/></g><circle cx="0" cy="-52" r="6.5" fill="#c98bff" stroke="#09090b" stroke-width="2"/></g><text x="1055" y="225.44" text-anchor="middle" font-size="15" font-weight="700" fill="#fafafa">persist</text><text x="1055" y="242.44" text-anchor="middle" font-size="11.5" fill="#c98bff">+DB</text><g transform="translate(1055,300) scale(0.72)"><path d="M0,-52 L45,-26 L45,26 L0,52 L-45,26 L-45,-26 Z" fill="#1a1326" stroke="#7c37ab" stroke-width="3"/><path d="M0,-44 L38,-22 L38,22 L0,44 L-38,22 L-38,-22 Z" fill="none" stroke="#7c37ab" stroke-width="1.5" opacity="0.6"/><g stroke="#fafafa" stroke-width="4.5" fill="none" stroke-linecap="round" stroke-linejoin="round"><line x1="-20" y1="0" x2="9" y2="0"/><polyline points="1,-9 13,0 1,9"/><line x1="19" y1="-13" x2="19" y2="13"/></g><circle cx="0" cy="-52" r="6.5" fill="#c98bff" stroke="#09090b" stroke-width="2"/></g><text x="1055" y="355.44" text-anchor="middle" font-size="15" font-weight="700" fill="#fafafa">notify</text><text x="1055" y="372.44" text-anchor="middle" font-size="11.5" fill="#c98bff">+HTTP</text><g transform="translate(1055,430) scale(0.72)"><path d="M0,-52 L45,-26 L45,26 L0,52 L-45,26 L-45,-26 Z" fill="#1a1326" stroke="#7c37ab" stroke-width="3"/><path d="M0,-44 L38,-22 L38,22 L0,44 L-38,22 L-38,-22 Z" fill="none" stroke="#7c37ab" stroke-width="1.5" opacity="0.6"/><g stroke="#fafafa" stroke-width="4.5" fill="none" stroke-linecap="round" stroke-linejoin="round"><line x1="-20" y1="0" x2="9" y2="0"/><polyline points="1,-9 13,0 1,9"/><line x1="19" y1="-13" x2="19" y2="13"/></g><circle cx="0" cy="-52" r="6.5" fill="#c98bff" stroke="#09090b" stroke-width="2"/></g><text x="1055" y="485.44" text-anchor="middle" font-size="15" font-weight="700" fill="#fafafa">deadletter</text><text x="1055" y="502.44" text-anchor="middle" font-size="11.5" fill="#c98bff">+DB</text><text x="880" y="274" font-size="11" font-family="ui-monospace,Menlo,monospace" fill="#a1a1aa">known</text><text x="880" y="338" font-size="11" font-family="ui-monospace,Menlo,monospace" fill="#a1a1aa">unknown</text><line x1="48" y1="540" x2="1232" y2="540" stroke="#27272a" stroke-width="1"/><g transform="translate(62,567)"><path d="M0,-12 L10,-6 L10,6 L0,12 L-10,6 L-10,-6 Z" fill="#1a1326" stroke="#7c37ab" stroke-width="2"/><rect x="-4.5" y="-4.5" width="9" height="9" rx="1.5" fill="#fafafa"/></g><text x="82" y="572" font-size="17" font-weight="700" fill="#7c37ab">bloccs</text><text x="1232" y="572" text-anchor="end" font-size="13" fill="#a1a1aa">schema-typed edges · declared effects · rest_for_one supervision</text></svg>
